# xmcd
# 
# Track frame offsets:
#     150
#     11105
#     25165
#     36892
#     54015
#     67217
#     79667
#     97007
#     108310
#     120857
#     134630
#     146312
#     162120
#     175710
#     187117
#     202700
#     217677
#     229815
#     244172
#     257957
#     271090
#     284517
#     296905
#     310290
#     323915
#     336260
# 
# Disc length: 4622
# 
# Revision: 4
# Processed by: cddbd v1.5.2PL0 Copyright (c) Steve Scherf et al.
# Submitted via: fre:ac v1.0.17
# 
DISCID=7a120c1a
DTITLE=Various Artist - Atlantic Soul [CD2)
DYEAR=1999
DGENRE=Soul
TTITLE0=Aretha Franklin - Respect
TTITLE1=Wilson Pickett - Mustang Sally
TTITLE2=Sam and Dave - Hold On, I'm Comin'
TTITLE3=Otis Redding - Try A Little Tenderness
TTITLE4=Ben E King - Stand By Me
TTITLE5=Aretha Franklin - A Natural Woman
TTITLE6=Brook Benton - Rainy Night In Georgia
TTITLE7=The Drifters - Saturday Night At The Movies
TTITLE8=Aretha Franklin - Chain Of Fools
TTITLE9=The Drifters - On Broadway
TTITLE10=Rufus Thomas - Walkin' The Dog
TTITLE11=Aretha Franklin - Spanish Harlem
TTITLE12=Otis Redding and Carla Thomas - Tramp
TTITLE13=Sam and Dave - Wrap It Up
TTITLE14=Ray Charles - The Right Time
TTITLE15=Percy Sledge - Warm And Tender Love
TTITLE16=Otis Redding - Fa-Fa-Fa-Fa-Fa (Sad Song)
TTITLE17=Detroit Spinners - I'll Be Around
TTITLE18=Percy Sledge - Take Time To Know Her
TTITLE19=Otis Redding - I've Been Loving You Too Long
TTITLE20=Wilson Pickett - 634-5789
TTITLE21=Sam and Dave - I Thank You
TTITLE22=Kig Curtis - Memphis Soul Stew
TTITLE23=Eddie Floyd - Big Bird
TTITLE24=R B Greaves - Take A Letter, Maria
TTITLE25=The Coasters - Charlie Brown
EXTD=jAq
EXTT0=
EXTT1=
EXTT2=
EXTT3=
EXTT4=
EXTT5=
EXTT6=
EXTT7=
EXTT8=
EXTT9=
EXTT10=
EXTT11=
EXTT12=
EXTT13=
EXTT14=
EXTT15=
EXTT16=
EXTT17=
EXTT18=
EXTT19=
EXTT20=
EXTT21=
EXTT22=
EXTT23=
EXTT24=
EXTT25=
PLAYORDER=
